<?xml version="1.0" encoding="UTF-8"?>
<!-- Generated by Pixelmator Pro 3.6.12 -->
<svg width="1368" height="431" viewBox="0 0 1368 431" xmlns="http://www.w3.org/2000/svg">
    <path id="Figurational" fill="#000000" fill-rule="evenodd" stroke="none" d="M 1234.170776 277.104004 C 1235.610718 285.456055 1244.826782 288.048096 1254.618774 288.048096 C 1269.018799 288.048096 1280.250732 284.879883 1290.618774 274.511963 C 1301.850708 263.280029 1309.338745 250.031982 1315.674805 236.496094 C 1318.266724 231.023926 1315.962769 226.991943 1310.490723 227.280029 C 1306.45874 227.280029 1303.290771 228.719971 1300.986694 231.887939 C 1296.378784 238.224121 1288.602783 249.456055 1281.40271 252.335938 C 1279.386719 253.488037 1277.658691 254.063965 1276.21875 253.775879 C 1267.866699 253.775879 1270.170776 237.360107 1271.03479 230.736084 C 1272.762695 218.639893 1280.826782 161.615967 1288.602783 153.840088 C 1289.466797 152.976074 1291.194702 152.112061 1293.498779 151.535889 C 1307.03479 148.080078 1320.858765 142.320068 1331.514771 132.23999 C 1356.570801 110.927979 1369.530762 75.216064 1368.090698 47.280029 C 1367.226807 35.76001 1359.16272 25.104004 1351.962769 17.040039 C 1344.762695 8.112061 1335.258789 1.199951 1322.298706 0.048096 L 1321.146729 0.048096 C 1318.554688 0.048096 1316.826782 0.912109 1314.522705 2.063965 C 1298.970703 9.840088 1296.666748 30 1292.058716 44.112061 C 1272.186768 100.560059 1252.026733 158.447998 1240.7948 217.488037 C 1237.050781 235.055908 1231.002686 260.399902 1234.170776 277.104004 Z M 1298.394775 112.944092 C 1299.546753 106.895996 1301.27478 100.8479 1303.002686 94.800049 C 1307.322754 80.112061 1311.354736 66.575928 1315.098755 51.887939 C 1315.962769 50.447998 1323.450806 21.359863 1328.634766 21.072021 C 1339.578735 21.072021 1343.03479 35.76001 1343.322754 44.399902 C 1343.322754 71.184082 1326.042725 102 1303.002686 121.295898 C 1301.562744 122.447998 1300.410767 123.023926 1299.546753 123.023926 C 1296.666748 123.023926 1297.818726 116.399902 1298.394775 112.944092 Z M 1099.098755 263.568115 C 1102.842773 272.496094 1109.178711 278.543945 1119.258789 278.543945 C 1130.778687 278.543945 1146.330688 267.887939 1152.090698 257.52002 C 1153.242798 255.503906 1155.258789 253.775879 1157.562744 251.184082 L 1158.426758 258.384033 C 1160.154785 272.783936 1166.490723 284.303955 1182.618774 284.303955 C 1203.066772 284.303955 1220.634766 257.231934 1229.562744 241.104004 C 1233.306763 233.615967 1230.714722 224.976074 1227.258789 225.263916 C 1226.394775 225.263916 1225.242798 225.840088 1224.378784 227.280029 C 1222.938721 228.719971 1211.706787 244.271973 1207.386719 248.016113 C 1205.082764 250.031982 1202.202759 251.76001 1199.610718 252.048096 C 1198.170776 238.800049 1209.690796 219.791992 1216.602783 207.407959 C 1228.986694 185.52002 1236.474731 165.072021 1231.578735 143.184082 C 1230.714722 138.864014 1227.834717 136.560059 1224.090698 136.8479 C 1221.210693 136.8479 1218.042725 138 1214.874756 140.592041 C 1211.130737 143.76001 1208.250732 147.503906 1204.7948 150.959961 C 1202.778687 152.976074 1201.626709 153.840088 1200.762695 153.840088 C 1199.322754 153.840088 1198.170776 152.399902 1196.154785 150.671875 C 1190.106689 145.488037 1183.482788 142.895996 1175.418701 142.895996 C 1147.194702 142.895996 1118.970703 173.135986 1107.73877 196.464111 C 1097.082764 216.912109 1091.322754 245.135986 1099.098755 263.568115 Z M 1125.306763 240.528076 C 1132.506714 215.471924 1143.450806 187.823975 1159.290771 166.800049 C 1162.45874 162.47998 1170.234741 157.583984 1175.994751 157.583984 C 1177.434692 157.583984 1178.874756 157.87207 1180.026733 158.736084 C 1185.786743 162.191895 1183.770752 169.39209 1181.754761 176.016113 L 1176.570801 188.399902 C 1168.506714 205.679932 1159.290771 222.095947 1146.906738 237.360107 C 1143.16272 241.968018 1134.522705 257.231934 1127.610718 257.52002 L 1126.170776 257.231934 C 1120.122803 255.791992 1123.866699 244.560059 1125.306763 240.528076 Z M 601.146729 263.568115 C 604.890747 272.496094 611.226807 278.543945 621.306763 278.543945 C 632.82666 278.543945 648.378662 267.887939 654.138672 257.52002 C 655.290771 255.503906 657.306763 253.775879 659.610718 251.184082 L 660.474731 258.384033 C 662.202759 272.783936 668.538818 284.303955 684.666748 284.303955 C 705.114746 284.303955 722.682739 257.231934 731.610718 241.104004 C 735.354736 233.615967 732.762695 224.976074 729.306763 225.263916 C 728.442749 225.263916 727.290771 225.840088 726.426758 227.280029 C 724.986816 228.719971 713.754761 244.271973 709.434814 248.016113 C 707.130737 250.031982 704.250732 251.76001 701.658691 252.048096 C 700.21875 238.800049 711.73877 219.791992 718.650757 207.407959 C 731.034668 185.52002 738.522705 165.072021 733.626709 143.184082 C 732.762695 138.864014 729.882813 136.560059 726.138672 136.8479 C 723.258789 136.8479 720.09082 138 716.922729 140.592041 C 713.178711 143.76001 710.298828 147.503906 706.842773 150.959961 C 704.82666 152.976074 703.674805 153.840088 702.810791 153.840088 C 701.370728 153.840088 700.21875 152.399902 698.202759 150.671875 C 692.154785 145.488037 685.530762 142.895996 677.466797 142.895996 C 649.242676 142.895996 621.018799 173.135986 609.786743 196.464111 C 599.130737 216.912109 593.370728 245.135986 601.146729 263.568115 Z M 627.354736 240.528076 C 634.554688 215.471924 645.498779 187.823975 661.338745 166.800049 C 664.506836 162.47998 672.282715 157.583984 678.042725 157.583984 C 679.482666 157.583984 680.922729 157.87207 682.074707 158.736084 C 687.834717 162.191895 685.818726 169.39209 683.802734 176.016113 L 678.618774 188.399902 C 670.554688 205.679932 661.338745 222.095947 648.954834 237.360107 C 645.210693 241.968018 636.570801 257.231934 629.658691 257.52002 L 628.21875 257.231934 C 622.170776 255.791992 625.914795 244.560059 627.354736 240.528076 Z M 991.962769 282.864014 C 986.490723 282.864014 981.594727 282.288086 978.138794 279.120117 C 974.394775 275.951904 969.498779 271.63208 972.666748 265.583984 L 972.666748 265.008057 C 975.258789 259.535889 979.290771 256.36792 980.442749 250.60791 L 987.6427 207.120117 C 989.658691 195.600098 993.97876 184.080078 993.97876 172.560059 C 993.97876 167.087891 993.690796 164.496094 991.386719 160.176025 L 990.813293 158.865997 C 989.727478 156.528076 988.22937 153.302277 991.098755 150.671875 C 993.97876 148.656006 997.434692 147.791992 1000.602783 147.791992 C 1004.058716 148.080078 1007.226807 148.656006 1009.242798 150.384033 C 1012.69873 153.840088 1017.306763 159.600098 1019.322754 164.208008 C 1031.994751 153.263916 1045.818726 141.456055 1063.674805 141.456055 L 1069.722778 142.031982 C 1082.106689 143.184082 1090.45874 159.600098 1091.898804 170.256104 C 1092.762695 176.303955 1092.186768 182.063965 1091.322754 188.687988 C 1089.306763 205.104004 1084.410767 221.52002 1077.498779 237.647949 C 1073.754761 246.575928 1071.16272 255.503906 1070.010742 264.431885 L 1069.962402 265.250671 C 1069.692261 269.81366 1069.450806 273.890747 1069.722778 277.968018 C 1070.586792 282.288086 1071.16272 285.456055 1069.722778 289.775879 C 1068.570801 291.791992 1060.506714 293.231934 1058.490723 293.231934 L 1056.474731 293.231934 C 1032.858765 293.231934 1028.826782 267.600098 1032.570801 246.864014 C 1035.16272 233.904053 1039.194702 221.52002 1043.802734 208.8479 C 1048.410767 197.615967 1053.306763 186.671875 1057.338745 175.439941 C 1058.490723 172.271973 1059.066772 169.968018 1058.778687 166.800049 C 1057.914795 165.936035 1057.338745 165.647949 1056.474731 165.647949 C 1051.002686 165.936035 1031.418701 185.808105 1027.674805 190.416016 C 1017.306763 203.375977 1019.03479 220.944092 1016.730713 235.055908 L 1013.562744 256.080078 C 1011.258789 267.023926 1006.650757 282.864014 991.962769 282.864014 Z M 821.466797 267.887939 C 822.618774 279.407959 829.818726 287.184082 840.762695 287.184082 C 843.930664 287.184082 847.386719 286.60791 851.130737 285.167969 L 850.554688 279.696045 C 847.098755 269.328125 848.538818 258.384033 852.282715 247.1521 C 859.194824 226.704102 865.242676 205.39209 867.834717 185.52002 C 870.138672 167.087891 867.546753 148.080078 855.450684 135.983887 C 853.722656 134.256104 851.706787 133.104004 849.114746 132.815918 C 847.674805 132.815918 845.946777 133.39209 844.21875 134.543945 C 842.500244 139.871155 843.037659 146.326263 843.567078 152.685974 C 843.924927 156.984314 844.279114 161.238953 843.930664 165.072021 C 842.490723 175.728027 839.322754 186.671875 836.442749 197.328125 L 831.453369 214.171234 C 825.862854 232.217606 819.727905 252.021225 821.466797 267.887939 Z M 972.954712 211.439941 C 969.498779 225.552002 964.890747 239.087891 956.538818 252.624023 C 947.034668 269.328125 924.570801 285.456055 904.69873 285.456055 C 859.194824 285.456055 858.906738 230.159912 875.034668 193.87207 C 886.554688 165.072021 915.354736 132.528076 946.746826 132.528076 C 963.73877 132.528076 974.394775 140.303955 975.834717 158.159912 C 977.27478 175.439941 976.69873 193.295898 972.954712 211.439941 Z M 783.450684 125.904053 C 776.538818 125.904053 770.202759 125.040039 764.730713 123.023926 C 729.306763 110.639893 741.690674 82.991943 751.770752 82.991943 L 753.786743 82.991943 C 759.883911 82.757568 758.724976 86.723907 757.92865 89.449249 L 757.530762 91.055908 C 756.954834 95.951904 760.986816 104.303955 771.642822 106.031982 L 776.538818 106.320068 C 780.570801 106.320068 784.890747 105.743896 788.922729 105.456055 C 796.986816 87.023926 800.730713 84.432129 807.642822 66 C 808.794678 61.968018 813.97876 55.343994 817.434814 55.343994 L 818.58667 55.63208 C 823.482666 58.511963 823.482666 69.456055 823.770752 75.216064 L 824.14856 81.179413 C 824.676514 88.376678 824.903381 91.469177 821.178711 101.711914 C 833.091614 98.20816 844.720398 94.04126 855.104614 90.325317 C 859.691833 82.913025 866.788635 76.656006 875.034668 76.656006 C 878.835327 76.656006 882.080078 78.323181 883.611328 81.174957 L 891.16272 80.399902 C 926.010742 84.144043 895.194824 112.656006 891.16272 113.231934 C 888.04364 113.677521 887.60553 110.36972 887.162109 107.021942 C 886.777893 104.120544 886.389587 101.189117 884.248657 100.64502 C 883.951965 104.552704 883.369202 108.460297 882.234741 112.36792 C 880.21875 116.976074 877.626709 121.295898 873.306763 124.464111 C 870.426758 126.191895 866.394775 127.055908 862.362793 127.055908 C 856.890747 127.055908 851.706787 125.328125 849.97876 121.87207 C 848.538818 119.567871 848.538818 116.399902 848.538818 113.231934 L 848.60083 112.47641 C 839.841492 115.36441 830.137756 118.310547 820.314697 120.719971 C 816.570801 130.224121 803.322754 179.184082 802.170776 181.199951 L 782.58667 240.23999 C 780.570801 246.288086 777.402832 252.335938 776.538818 258.959961 C 776.250854 261.550964 776.538574 263.854126 776.826294 266.157166 L 776.82666 266.159912 C 777.402832 267.887939 777.690674 268.464111 778.554688 268.464111 C 778.981384 268.677338 779.566101 268.258514 780.542908 267.558838 L 781.722656 266.736084 C 786.618774 263.280029 790.074707 258.959961 794.394775 254.639893 C 796.69873 251.471924 802.746826 243.120117 807.066772 243.120117 L 808.794678 243.696045 C 809.946777 244.560059 810.522705 246.288086 810.234741 248.879883 C 807.930664 267.023926 779.130737 284.592041 762.138672 284.592041 C 759.834717 284.592041 757.530762 284.016113 755.802734 283.439941 C 746.298828 279.696045 744.858765 266.736084 745.146729 256.36792 C 747.16272 239.087891 754.074707 222.095947 758.970703 205.104004 C 765.594727 185.808105 775.962769 144.912109 783.450684 125.904053 Z M 916.21875 174.864014 C 903.258789 188.399902 894.042725 206.543945 890.298828 224.976074 C 887.994751 235.343994 887.130737 246 889.434814 255.503906 C 890.010742 259.823975 893.754761 270.47998 899.514771 270.47998 C 901.530762 270.47998 903.546753 269.040039 905.85083 265.87207 C 921.690674 243.696045 932.058716 216.335938 936.666748 189.552002 L 937.183838 186.762756 C 938.395569 180.407791 939.913391 172.447327 936.666748 167.951904 C 935.802734 167.087891 934.362793 166.511963 932.922729 166.511963 C 932.34668 166.224121 931.482666 166.511963 930.618774 166.800049 C 925.146729 168.528076 919.962769 170.543945 916.21875 174.864014 Z M 200.250702 431.472046 C 187.002716 431.472046 177.210724 421.680054 176.34671 408.719971 C 175.482697 396.911987 180.666718 384.81604 186.714691 373.583984 C 195.354706 357.456055 217.818695 329.808105 235.386688 324.048096 C 237.978729 323.184082 239.418671 321.743896 240.282684 319.728027 C 244.026703 310.800049 246.618744 301.008057 249.786713 291.503906 C 254.394745 277.39209 257.850677 262.991943 261.594696 248.879883 C 260.730682 250.895996 258.138702 252.912109 255.834686 254.927979 L 250.074677 260.399902 C 245.466705 264.719971 237.402679 271.919922 231.354706 273.936035 C 230.778717 273.936035 225.306732 276.23999 223.290741 276.23999 C 223.002716 276.23999 222.714691 276.23999 222.714691 275.951904 L 221.27475 275.951904 C 211.482758 275.951904 203.99472 267.887939 201.690704 259.248047 C 192.186737 222.671875 214.93869 163.63208 255.546722 142.031982 C 259.578705 139.728027 263.322723 139.1521 266.778717 139.1521 C 270.234711 139.1521 273.690704 139.728027 277.434723 140.879883 C 278.298676 141.743896 286.93869 144.624023 290.682709 144.624023 L 291.834686 144.335938 C 295.290741 140.879883 296.442719 137.135986 298.45871 133.679932 C 301.626678 128.208008 304.794708 116.976074 312.282684 116.976074 L 314.298676 117.263916 C 323.950226 119.818787 322.969482 129.928192 322.112 138.766998 L 322.074677 139.1521 C 312.858734 194.447998 296.730682 251.184082 274.554718 304.464111 C 273.114716 307.919922 274.266693 309.360107 277.434723 309.360107 L 289.242706 308.783936 C 294.426727 308.783936 299.03476 309.647949 303.930756 311.375977 C 306.234711 312.23999 308.250702 313.968018 308.538727 316.560059 C 308.250702 319.728027 305.370697 322.031982 301.914703 322.895996 L 298.45871 323.471924 L 288.090729 322.60791 C 278.298676 322.60791 265.914703 325.199951 263.322723 336.431885 C 256.410736 370.128052 249.498749 431.472046 200.250702 431.472046 Z M 217.242706 357.167969 C 207.738739 364.94397 200.826752 375.312012 196.218719 386.543945 C 192.474701 395.76001 190.170746 406.416016 194.778717 414.192017 C 196.506683 416.495972 198.810699 417.647949 201.114716 417.647949 C 218.394745 417.936035 231.930756 362.927979 234.81076 350.255981 C 235.098724 347.952026 236.250702 345.647949 236.250702 343.631958 C 235.962738 343.631958 226.45871 348.81604 226.170746 349.680054 C 222.714691 351.984009 220.410736 354.57605 217.242706 357.167969 Z M 21.978729 298.12793 L 20.826721 298.12793 C 5.850708 294.959961 -2.501282 286.320068 0.666718 269.904053 C 8.154724 230.736084 15.354706 191.567871 28.314728 152.399902 C 29.75473 148.944092 33.210724 140.592041 30.618713 138 C 29.75473 137.424072 29.178711 137.424072 28.314728 137.424072 C 27.450714 137.424072 26.298706 137.711914 25.146698 138.288086 C 22.842712 139.439941 19.674713 140.303955 17.082733 140.303955 C 13.914703 140.016113 11.610718 139.1521 10.746704 136.271973 C 9.594727 130.224121 12.186707 125.904053 18.810699 123.023926 C 24.282715 120.719971 29.75473 119.280029 35.514709 117.263916 C 35.802704 117.263916 36.090729 117.263916 36.090729 116.976074 L 36.666718 116.399902 C 40.410706 104.879883 41.562714 92.783936 44.154724 81.263916 C 46.170715 72.335938 48.186707 63.407959 48.474701 54.47998 L 48.520035 53.40918 C 48.621548 51.630219 48.774334 48.952759 47.610718 48.719971 C 47.034698 48.719971 46.170715 49.008057 45.306732 49.87207 C 39.546722 55.63208 30.906708 60.528076 22.842712 60.528076 L 21.114716 60.528076 C 7.578705 59.664063 -0.485291 44.112061 2.394714 31.1521 C 2.970703 28.560059 3.258728 25.679932 4.410706 23.375977 C 11.034698 9.840088 25.146698 3.791992 37.818726 3.791992 C 54.810699 3.791992 68.922699 15.312012 81.306732 25.679932 C 100.026703 41.231934 127.674713 47.567871 154.746735 47.567871 C 167.99472 47.855957 187.002716 44.112061 195.066742 33.167969 C 197.658722 29.711914 197.082733 26.256104 195.642731 23.087891 L 189.018707 15.600098 L 191.322723 12.432129 C 192.762726 10.704102 194.490692 10.12793 196.218719 10.12793 C 197.082779 9.912018 197.946869 10.182068 198.810928 10.452118 L 199.674713 10.704102 C 210.042694 14.159912 217.818695 30.288086 218.970673 40.080078 C 220.410736 51.312012 212.34671 66 198.234711 70.031982 C 195.642731 71.184082 185.562714 76.080078 165.690704 76.080078 C 139.482697 76.080078 117.018707 68.879883 94.266693 56.496094 C 87.354706 52.176025 81.306732 47.280029 74.394745 42.384033 C 74.984177 42.973511 74.635262 44.233215 74.354019 45.248627 L 74.682709 52.176025 C 75.258698 56.496094 76.122711 60.815918 76.122711 65.135986 C 75.546722 78.671875 72.090729 104.016113 68.634705 116.976074 L 68.922699 119.280029 C 68.922699 122.159912 88.506683 125.328125 91.386688 125.328125 L 95.130707 125.040039 C 98.298737 125.040039 102.042694 124.176025 105.786713 122.736084 C 107.802704 122.159912 109.530731 121.583984 111.258698 121.583984 C 117.594696 121.87207 123.066742 125.615967 123.930695 132.23999 C 124.794708 140.016113 116.730682 147.503906 109.530731 150.671875 C 105.210724 152.687988 100.890717 153.263916 96.570709 153.263916 C 85.338715 153.552002 74.10672 148.944092 65.466705 144.912109 L 64.026703 144.624023 C 62.298706 144.912109 61.722717 145.775879 61.146698 147.216064 C 43.578705 191.280029 43.86673 237.360107 36.090729 282.288086 C 35.226715 287.184082 28.026703 298.12793 21.978729 298.12793 Z M 333.306732 279.407959 C 335.898712 279.983887 338.490692 279.983887 341.082733 279.983887 C 349.722748 279.983887 358.93869 277.679932 365.850677 270.768066 C 367.86673 268.751953 374.490692 261.840088 378.234711 261.840088 C 380.538727 261.840088 381.114716 264.719971 381.114716 266.447998 C 381.114716 282.288086 392.634735 291.216064 408.474701 291.503906 C 422.201385 291.503906 434.508301 280.145477 438.064392 267.297363 C 439.727234 269.303894 442.144958 270.768066 445.050751 270.768066 C 483.066742 270.768066 538.074707 166.511963 548.154663 139.1521 C 548.442749 137.711914 549.306763 136.560059 550.45874 136.271973 C 550.746704 135.983887 551.610718 136.271973 552.474731 137.135986 C 558.522705 143.184082 559.098755 153.552002 554.778687 163.055908 C 551.898682 171.983887 533.178711 213.743896 528.282715 222.384033 C 522.234741 234.768066 518.778687 247.439941 520.21875 259.823975 C 521.946655 274.224121 532.602661 289.488037 548.154663 289.775879 C 559.098755 289.775879 565.434692 282.575928 571.482666 274.511963 C 583.578735 258.384033 592.21875 239.087891 593.658691 237.072021 C 595.962769 231.312012 590.778809 226.12793 587.034668 223.823975 C 584.730713 230.159912 558.810669 266.159912 552.186768 266.159912 C 551.469421 265.920929 551.546143 263.497986 551.592896 262.022949 L 551.610718 261.263916 C 553.050659 254.352051 555.066772 248.592041 558.234741 241.679932 L 564.331604 227.581985 C 573.758484 206.212311 588.066162 173.778229 587.610718 159.887939 C 587.034668 145.199951 572.058716 127.343994 561.690674 117.840088 C 560.250732 115.823975 557.946655 114.384033 557.082764 111.791992 L 556.506714 110.063965 C 562.842773 71.471924 552.186768 58.511963 540.090698 58.224121 C 527.130737 58.224121 512.442749 73.488037 515.610718 88.176025 C 517.338745 94.224121 520.21875 99.407959 524.250732 103.728027 C 529.146729 109.199951 534.618774 114.095947 535.482666 121.295898 C 536.31366 125.450684 534.747192 130.138153 533.344971 134.334106 L 533.178711 134.832031 C 526.554688 154.991943 494.298737 239.087891 438.426727 256.36792 C 437.238098 256.82074 436.449921 257.651794 436.01413 258.694885 L 435.834686 258.671875 C 432.408142 258.671875 426.841278 262.035278 422.832611 264.457275 C 420.102417 266.106812 418.095398 267.319397 417.978729 266.736084 C 415.75528 262.289063 418.0914 255.964691 420.069336 250.610077 L 420.282684 250.031982 C 428.058685 229.295898 433.242706 219.216064 440.154755 198.191895 C 443.610687 190.12793 446.202728 182.063965 448.794708 174 C 456.570709 153.263916 444.474701 138.864014 430.93869 131.664063 C 430.074677 131.087891 428.922699 130.800049 428.058685 130.800049 C 424.890717 130.800049 422.010712 133.679932 420.282684 138 C 418.266693 142.895996 416.826752 148.080078 415.386688 152.976074 C 405.882721 178.320068 396.090729 203.375977 386.010712 228.719971 C 382.554718 236.208008 364.410736 256.944092 354.906708 257.231934 C 354.042694 257.231934 353.17868 256.944092 352.890717 256.080078 C 351.359406 254.165863 353.263 249.707428 354.881317 245.917175 L 365.651886 204.702698 C 370.665253 186.09523 375.645996 167.608734 372.186737 150.095947 C 369.882721 140.879883 364.6987 132.23999 355.194672 129.360107 C 352.890717 129.072021 346.554718 127.63208 341.946747 127.63208 C 339.930756 127.63208 338.490692 127.919922 337.338715 128.496094 C 333.37677 130.67514 335.682709 136.124298 337.508453 140.438721 C 338.337067 142.396759 339.066742 144.121094 339.066742 145.199951 C 340.06488 150.939209 339.333374 156.246155 338.558136 161.87027 L 338.202728 164.496094 C 336.186737 180.624023 330.426727 196.176025 326.10672 212.303955 L 314.010712 256.36792 L 313.434723 260.976074 C 311.99472 272.783936 324.090729 277.679932 333.306732 279.407959 Z M 156.186737 267.887939 C 157.338715 279.407959 164.538727 287.184082 175.482697 287.184082 C 178.650726 287.184082 182.10672 286.60791 185.850677 285.167969 L 185.27475 279.696045 C 181.818695 269.328125 183.258698 258.384033 187.002716 247.1521 C 193.914703 226.704102 199.962738 205.39209 202.554718 185.52002 C 204.858734 167.087891 202.266693 148.080078 190.170746 135.983887 C 188.442719 134.256104 186.426727 133.104004 183.834686 132.815918 C 182.394745 132.815918 180.666718 133.39209 178.93869 134.543945 C 177.22023 139.871185 177.757645 146.326355 178.287094 152.685883 C 178.644974 156.984436 178.999191 161.238983 178.650726 165.072021 C 177.210724 175.728027 174.042694 186.671875 171.162689 197.328125 L 166.173355 214.171173 C 160.582886 232.217255 154.447876 252.021088 156.186737 267.887939 Z M 243.162689 182.639893 C 237.690704 195.312012 234.234711 208.271973 230.778717 221.231934 L 230.491302 222.43811 C 229.008423 228.600586 223.93161 249.698669 228.186737 252.624023 C 229.050751 253.199951 241.722748 246.575928 244.314728 244.560059 C 270.234711 224.399902 277.434723 196.464111 284.34671 164.496094 C 286.650726 155.280029 281.17868 151.823975 274.554718 151.823975 C 257.850677 151.823975 248.34671 169.104004 243.162689 182.639893 Z M 184.6987 121.87207 C 186.426727 125.328125 191.610687 127.055908 197.082733 127.055908 C 201.114716 127.055908 205.146698 126.191895 208.026703 124.464111 C 212.34671 121.295898 214.93869 116.976074 216.954681 112.36792 C 219.311096 104.251556 219.287308 96.135132 219.263519 88.018616 L 219.258759 85.583984 C 219.546722 80.112061 215.226715 76.656006 209.75473 76.656006 C 197.370697 76.656006 187.578705 90.768066 184.986725 101.711914 C 184.122711 105.743896 183.546722 109.488037 183.258698 113.231934 C 183.258698 116.399902 183.258698 119.567871 184.6987 121.87207 Z"/>
</svg>
